<?xml version="1.0" standalone="no"?>
<svg version="1.1" id="downloadSvg" xmlns="http://www.w3.org/2000/svg" xmlns:xlink="http://www.w3.org/1999/xlink" x="7px" y="0px" viewBox="0 0 1200 1200" enable-background="new 0 0 1200 1200" xml:space="preserve" height="512" width="512">
<path fill="#FFFFFF" d="M1126.678,272.177l-28.467-0.831c0.402-1.988,0.953-4.422,1.696-7.395l1.498-5.985l-4.234-4.488&#10;&#9;c-6.799-7.21-13.733-12.701-20.666-16.899c-0.255-0.176-0.516-0.343-0.792-0.511l-0.024,0.039&#10;&#9;c-26.68-15.744-53.255-11.459-71.876-2.55c-2.032-17.251-5.666-43.973-10.968-67.82l-1.575-7.081l-7.097-1.509&#10;&#9;c-96.111-20.362-229.879,6.079-397.565,78.579c-4.658,2.015-9.135,3.948-11.937,5.093&#10;&#9;c-208.531-75.975-414.376-67.082-416.451-66.989L149,174.342v24.872l-27.872,3.596l-31.46,46.775l-39.63,18.842l47.51,781.078&#10;&#9;l497.832-56.725l71.93-2.808l482.667,10.115L1126.678,272.177z M1083.184,949.358l-459.362,10.788l-0.105-1.943l2.203-0.046&#10;&#9;l0.923-0.972c249.418-60.899,399.162-57.184,455.996-34.607L1083.184,949.358z M172.419,952.581l-23.907,29.883l-40.43-720.988&#10;&#9;l9.449-14.4L172.419,952.581z M600.33,961.454l-436.194,37.577l25.38-31.726l410.92-8.614L600.33,961.454z M788.139,901.273&#10;&#9;c197.635-54.523,288.977-25.064,290.051-24.701l4.077,1.426l0.262,20.425C1023.952,879.043,918.947,880.396,788.139,901.273z&#10;&#9; M1059.129,252.968c2.224,46.303,7.778,371.102,11.286,598.412c-41.222-8.394-166.688-20.827-394.436,62.297&#10;&#9;c155.902-113.967,373.459-79.314,375.88-78.915l14.702,2.461l-1.624-14.817c-0.509-4.596-45.467-414.025-59.557-563.699&#10;&#9;C1013.524,253.147,1034.798,241.792,1059.129,252.968z M595.559,256.423c159.113-68.795,285.828-95.208,376.796-78.618&#10;&#9;c2.944,14.485,5.294,29.734,7.057,42.767c6.22,83.458,52.361,506.196,61.528,589.919c-58.556-6.977-275.187-21.403-418.749,119.355&#10;&#9;l-36.02-669.404C588.735,259.367,591.704,258.091,595.559,256.423z M564.856,260.844l35.507,671.49&#10;&#9;c-102.283-24.04-309.746-45.349-356.654-49.963L171,208.441v-12.355C216,195.439,388.681,197.434,564.856,260.844z M147.274,221.798&#10;&#9;l74.447,681.27l9.146,0.87c2.065,0.195,156.969,15.02,277.355,34.127l-313.795,6.581l-56.142-721.622L147.274,221.798z&#10;&#9; M73.091,282.192l13.206-6.338l41.912,747.439l-9.785,1.114L73.091,282.192z M988.198,974.143l117.826-2.76l-8.705-677.499&#10;&#9;l7.5,0.218l21.832,682.936L988.198,974.143z" style="fill: rgb(250, 249, 253);"/>
</svg>